<svg width="420" height="200" viewBox="0 0 420 200" fill="none" xmlns="http://www.w3.org/2000/svg">
<g clip-path="url(#clip0_235_202)">
<path d="M193.382 152.218C180.503 152.248 168.132 147.192 158.961 138.15C154.525 133.788 150.982 128.602 148.531 122.884C146.006 116.974 144.704 110.614 144.704 104.187C144.704 97.7602 146.006 91.4 148.531 85.49C150.982 79.7715 154.525 74.586 158.961 70.224C168.14 61.189 180.502 56.1251 193.381 56.1251C206.261 56.1251 218.624 61.189 227.802 70.224C232.239 74.586 235.782 79.7715 238.233 85.49C240.758 91.4 242.06 97.7602 242.06 104.187C242.06 110.614 240.758 116.974 238.233 122.884C235.782 128.602 232.239 133.788 227.802 138.15C218.631 147.192 206.261 152.248 193.382 152.218ZM193.382 62.548C170.113 62.548 151.182 81.227 151.182 104.187C151.182 127.147 170.112 145.826 193.382 145.826C216.652 145.826 235.582 127.147 235.582 104.187C235.582 81.227 216.651 62.548 193.382 62.548Z" fill="black" stroke="black" stroke-width="3"/>
<path d="M184.453 88.0116L173.814 98.65L176.177 101.013L186.816 90.3747L184.453 88.0116Z" fill="#C12626"/>
<path d="M176.177 88.0108L173.814 90.374L184.453 101.012L186.816 98.6493L176.177 88.0108Z" fill="#C12626"/>
<path d="M212.536 88.0116L201.898 98.65L204.261 101.013L214.9 90.3747L212.536 88.0116Z" fill="#C12626"/>
<path d="M204.261 88.0108L201.898 90.374L212.536 101.012L214.9 98.6493L204.261 88.0108Z" fill="#C12626"/>
<path d="M175.789 101.581L172.604 98.402L176.738 94.261L172.597 90.127L175.776 86.9419L179.917 91.076L184.051 86.935L187.236 90.1139L183.102 94.255L187.243 98.3889L184.064 101.574L179.923 97.44L175.789 101.581ZM179.922 95.802L184.063 99.9359L185.606 98.391L181.465 94.257L185.599 90.116L184.053 88.573L179.919 92.714L175.778 88.58L174.235 90.126L178.377 94.26L174.243 98.401L175.789 99.944L179.922 95.802Z" fill="#C12626"/>
<path d="M212.097 101.547L207.955 97.4129L203.821 101.554L200.636 98.375L204.77 94.234L200.629 90.0999L203.808 86.915L207.949 91.049L212.083 86.9081L215.268 90.087L211.134 94.228L215.275 98.362L212.097 101.547ZM207.954 95.775L212.095 99.909L213.638 98.363L209.497 94.229L213.631 90.088L212.086 88.545L207.952 92.686L203.811 88.552L202.268 90.098L206.41 94.232L202.276 98.373L203.822 99.916L207.954 95.775Z" fill="#C12626"/>
<path d="M287.382 152.999C274.503 153.029 262.132 147.973 252.961 138.931C248.525 134.569 244.982 129.383 242.531 123.665C240.006 117.755 238.704 111.395 238.704 104.968C238.704 98.5412 240.006 92.181 242.531 86.271C244.982 80.5525 248.525 75.367 252.961 71.005C262.14 61.97 274.502 56.9061 287.381 56.9061C300.261 56.9061 312.624 61.97 321.802 71.005C326.239 75.367 329.782 80.5525 332.233 86.271C334.758 92.181 336.06 98.5412 336.06 104.968C336.06 111.395 334.758 117.755 332.233 123.665C329.782 129.383 326.239 134.569 321.802 138.931C312.631 147.973 300.261 153.029 287.382 152.999ZM287.382 63.329C264.113 63.329 245.182 82.008 245.182 104.968C245.182 127.928 264.112 146.607 287.382 146.607C310.652 146.607 329.582 127.928 329.582 104.968C329.582 82.008 310.651 63.329 287.382 63.329Z" fill="black" stroke="black" stroke-width="3"/>
<path d="M83.0031 127.364H94.703C95.578 135.976 104.055 142.385 114.619 142.451C127.268 142.384 136.419 133.239 136.419 121.089C136.419 108.539 126.932 99.259 113.812 99.189C105.603 99.056 99.212 101.589 95.6451 107.868H83.942L90.803 54.997H143.554V65.678H100.898L97.265 93.983H98.203C103.381 90.2802 109.601 88.3166 115.966 88.375C134.536 88.375 148.195 101.994 148.266 120.819C148.203 139.514 134.068 152.997 114.623 152.997C97.062 152.997 83.7401 142.251 83.0031 127.364Z" fill="black"/>
<path d="M98.7012 192.754H97.001V179.189H98.7012V192.754Z" fill="#C12626"/>
<path d="M112.592 192.754H110.967L103.558 182.187H103.426V192.754H101.726V179.189H103.37L110.779 189.776H110.911V179.189H112.593L112.592 192.754Z" fill="#C12626"/>
<path d="M114.86 179.189H125.179V180.689H120.888V192.755H119.168V180.689H114.859L114.86 179.189Z" fill="#C12626"/>
<path d="M127.447 179.189H135.747V180.689H129.147V185.223H135.308V186.703H129.147V191.256H135.837V192.756H127.445L127.447 179.189Z" fill="#C12626"/>
<path d="M138.334 179.189H142.983C146.183 179.189 147.651 180.951 147.651 183.368C147.712 184.196 147.494 185.02 147.032 185.709C146.569 186.398 145.889 186.912 145.1 187.168L148.181 192.751H146.197L143.334 187.477C143.234 187.487 143.116 187.487 143.003 187.487H140.036V192.752H138.336L138.334 179.189ZM142.927 185.953C145.11 185.953 145.96 184.979 145.969 183.368C145.96 181.747 145.109 180.688 142.907 180.688H140.034V185.953H142.927Z" fill="#C12626"/>
<path d="M160.948 192.754H159.323L151.914 182.187H151.782V192.754H150.082V179.189H151.726L159.134 189.776H159.267V179.189H160.949L160.948 192.754Z" fill="#C12626"/>
<path d="M162.772 192.754L167.78 179.189H169.58L174.588 192.754H172.788L171.418 188.932H165.918L164.548 192.754H162.772ZM170.898 187.454L168.725 181.383H168.612L166.439 187.454H170.898Z" fill="#C12626"/>
<path d="M176.407 179.189H178.107V191.256H184.457V192.756H176.406L176.407 179.189Z" fill="#C12626"/>
<path d="M195.991 180.499C194.177 180.499 192.991 181.436 192.991 182.729C193 184.154 194.597 184.688 195.637 184.941L196.998 185.316C198.463 185.691 200.873 186.525 200.873 189.065C200.873 191.276 199.073 192.991 195.902 193.001C192.954 192.992 191.13 191.483 190.969 189.234H192.708C192.85 190.752 194.277 191.474 195.902 191.464C197.792 191.474 199.21 190.508 199.21 189.027C199.21 187.706 197.944 187.2 196.51 186.797L194.828 186.348C192.682 185.729 191.341 184.642 191.35 182.805C191.34 180.505 193.401 179.005 196.056 179.005C198.711 179.005 200.62 180.542 200.686 182.605H199.022C198.872 181.268 197.625 180.499 195.991 180.499Z" fill="#C12626"/>
<path d="M203.278 179.189H211.578V180.689H204.978V185.223H211.139V186.703H204.978V191.256H211.668V192.756H203.277L203.278 179.189Z" fill="#C12626"/>
<path d="M214.232 179.189H218.881C222.081 179.189 223.549 180.951 223.549 183.368C223.611 184.196 223.393 185.02 222.93 185.709C222.468 186.398 221.787 186.912 220.998 187.168L224.079 192.751H222.095L219.232 187.477C219.132 187.487 219.014 187.487 218.901 187.487H215.934V192.752H214.234L214.232 179.189ZM218.825 185.953C221.008 185.953 221.858 184.979 221.867 183.368C221.858 181.747 221.007 180.688 218.805 180.688H215.933V185.953H218.825Z" fill="#C12626"/>
<path d="M230.309 190.562H230.46L234.504 179.188H236.304L231.296 192.753H229.496L224.488 179.188H226.288L230.309 190.562Z" fill="#C12626"/>
<path d="M238.126 179.189H246.426V180.689H239.826V185.223H245.988V186.703H239.826V191.256H246.517V192.756H238.125L238.126 179.189Z" fill="#C12626"/>
<path d="M249.079 179.189H253.728C256.928 179.189 258.396 180.951 258.396 183.368C258.457 184.196 258.239 185.02 257.777 185.709C257.314 186.398 256.634 186.912 255.845 187.168L258.926 192.751H256.941L254.078 187.477C253.978 187.487 253.861 187.487 253.748 187.487H250.78V192.752H249.08L249.079 179.189ZM253.671 185.953C255.854 185.953 256.704 184.979 256.714 183.368C256.704 181.747 255.854 180.688 253.652 180.688H250.779V185.953H253.671Z" fill="#C12626"/>
<path d="M265.676 179.189H273.976V180.689H267.376V185.223H273.537V186.703H267.376V191.256H274.066V192.756H265.675L265.676 179.189Z" fill="#C12626"/>
<path d="M276.629 179.189H281.278C284.478 179.189 285.946 180.951 285.946 183.368C286.007 184.196 285.789 185.02 285.327 185.709C284.864 186.398 284.183 186.912 283.394 187.168L286.475 192.751H284.49L281.627 187.477C281.527 187.487 281.409 187.487 281.296 187.487H278.329V192.752H276.629V179.189ZM281.221 185.953C283.404 185.953 284.255 184.979 284.264 183.368C284.255 181.747 283.404 180.688 281.202 180.688H278.329V185.953H281.221Z" fill="#C12626"/>
<path d="M288.318 179.189H292.967C296.167 179.189 297.635 180.951 297.635 183.368C297.696 184.196 297.478 185.02 297.015 185.709C296.552 186.398 295.872 186.912 295.083 187.168L298.164 192.751H296.18L293.317 187.477C293.217 187.487 293.1 187.487 292.986 187.487H290.019V192.752H288.319L288.318 179.189ZM292.91 185.953C295.093 185.953 295.943 184.979 295.953 183.368C295.943 181.747 295.093 180.688 292.891 180.688H290.018V185.953H292.91Z" fill="#C12626"/>
<path d="M305.61 192.943C302.095 192.943 299.553 190.263 299.563 185.971C299.553 181.679 302.095 179 305.61 179C309.125 179 311.668 181.68 311.658 185.971C311.668 190.263 309.116 192.943 305.61 192.943ZM305.61 191.369C308.086 191.36 310.004 189.469 310.01 185.969C310.001 182.469 308.082 180.569 305.61 180.569C303.138 180.569 301.216 182.462 301.21 185.969C301.216 189.467 303.135 191.36 305.61 191.369Z" fill="#C12626"/>
<path d="M314.154 179.189H318.803C322.003 179.189 323.471 180.951 323.471 183.368C323.533 184.196 323.315 185.02 322.852 185.709C322.39 186.398 321.709 186.912 320.92 187.168L324.001 192.751H322.017L319.153 187.477C319.053 187.487 318.936 187.487 318.822 187.487H315.855V192.752H314.155L314.154 179.189ZM318.747 185.953C320.93 185.953 321.78 184.979 321.789 183.368C321.78 181.747 320.929 180.688 318.727 180.688H315.854V185.953H318.747Z" fill="#C12626"/>
<path d="M180.5 123.002C180.5 123.002 182.268 119.002 194.007 119.002C205.746 119.002 208.5 123.002 208.5 123.002" stroke="#C12626" stroke-width="4" stroke-linecap="round"/>
<path d="M30.38 6.99197V11.393" stroke="#F24048" stroke-width="3" stroke-linecap="round" stroke-linejoin="round"/>
<path d="M23.386 7.86899L24.525 12.12" stroke="#F24048" stroke-width="3" stroke-linecap="round" stroke-linejoin="round"/>
<path d="M16.8569 10.525L19.0579 14.337" stroke="#F24048" stroke-width="3" stroke-linecap="round" stroke-linejoin="round"/>
<path d="M44.0699 10.525L41.8689 14.337" stroke="#F24048" stroke-width="3" stroke-linecap="round" stroke-linejoin="round"/>
<path d="M11.2379 14.781L14.3499 17.893" stroke="#F24048" stroke-width="3" stroke-linecap="round" stroke-linejoin="round"/>
<path d="M6.91199 20.346L10.724 22.547" stroke="#F24048" stroke-width="3" stroke-linecap="round" stroke-linejoin="round"/>
<path d="M4.17395 26.841L8.42495 27.98" stroke="#F24048" stroke-width="3" stroke-linecap="round" stroke-linejoin="round"/>
<path d="M3.20996 33.824H7.61096" stroke="#F24048" stroke-width="3" stroke-linecap="round" stroke-linejoin="round"/>
<path d="M4.08594 40.818L8.33694 39.679" stroke="#F24048" stroke-width="3" stroke-linecap="round" stroke-linejoin="round"/>
<path d="M56.247 41.145L51.996 40.006" stroke="#F24048" stroke-width="3" stroke-linecap="round" stroke-linejoin="round"/>
<path d="M57.2109 34.162H52.8099" stroke="#F24048" stroke-width="3" stroke-linecap="round" stroke-linejoin="round"/>
<path d="M56.335 27.168L52.084 28.307" stroke="#F24048" stroke-width="3" stroke-linecap="round" stroke-linejoin="round"/>
<path d="M53.6789 20.639L49.8669 22.84" stroke="#F24048" stroke-width="3" stroke-linecap="round" stroke-linejoin="round"/>
<path d="M49.4219 15.02L46.3099 18.132" stroke="#F24048" stroke-width="3" stroke-linecap="round" stroke-linejoin="round"/>
<path d="M37.3619 7.95596L36.2229 12.207" stroke="#F24048" stroke-width="3" stroke-linecap="round" stroke-linejoin="round"/>
<path d="M30.2109 60.91V56.509" stroke="#F24048" stroke-width="3" stroke-linecap="round" stroke-linejoin="round"/>
<path d="M37.2049 60.033L36.0659 55.782" stroke="#F24048" stroke-width="3" stroke-linecap="round" stroke-linejoin="round"/>
<path d="M43.734 57.377L41.533 53.565" stroke="#F24048" stroke-width="3" stroke-linecap="round" stroke-linejoin="round"/>
<path d="M16.52 57.377L18.721 53.565" stroke="#F24048" stroke-width="3" stroke-linecap="round" stroke-linejoin="round"/>
<path d="M49.352 53.121L46.24 50.009" stroke="#F24048" stroke-width="3" stroke-linecap="round" stroke-linejoin="round"/>
<path d="M53.6789 47.557L49.8669 45.356" stroke="#F24048" stroke-width="3" stroke-linecap="round" stroke-linejoin="round"/>
<path d="M6.91199 47.263L10.724 45.062" stroke="#F24048" stroke-width="3" stroke-linecap="round" stroke-linejoin="round"/>
<path d="M11.168 52.882L14.28 49.77" stroke="#F24048" stroke-width="3" stroke-linecap="round" stroke-linejoin="round"/>
<path d="M23.228 59.946L24.367 55.695" stroke="#F24048" stroke-width="3" stroke-linecap="round" stroke-linejoin="round"/>
<path d="M383.094 148.797V151.242" stroke="#F24048" stroke-width="2" stroke-linecap="round" stroke-linejoin="round"/>
<path d="M379.209 149.284L379.842 151.646" stroke="#F24048" stroke-width="2" stroke-linecap="round" stroke-linejoin="round"/>
<path d="M375.582 150.76L376.805 152.878" stroke="#F24048" stroke-width="2" stroke-linecap="round" stroke-linejoin="round"/>
<path d="M390.7 150.76L389.477 152.878" stroke="#F24048" stroke-width="2" stroke-linecap="round" stroke-linejoin="round"/>
<path d="M372.46 153.124L374.189 154.853" stroke="#F24048" stroke-width="2" stroke-linecap="round" stroke-linejoin="round"/>
<path d="M370.057 155.97L372.175 157.193" stroke="#F24048" stroke-width="2" stroke-linecap="round" stroke-linejoin="round"/>
<path d="M368.536 159.466L370.898 160.099" stroke="#F24048" stroke-width="2" stroke-linecap="round" stroke-linejoin="round"/>
<path d="M368 163.229H370.445" stroke="#F24048" stroke-width="2" stroke-linecap="round" stroke-linejoin="round"/>
<path d="M368.487 166.999L370.849 166.366" stroke="#F24048" stroke-width="2" stroke-linecap="round" stroke-linejoin="round"/>
<path d="M397.465 167.174L395.103 166.541" stroke="#F24048" stroke-width="2" stroke-linecap="round" stroke-linejoin="round"/>
<path d="M398 163.411H395.555" stroke="#F24048" stroke-width="2" stroke-linecap="round" stroke-linejoin="round"/>
<path d="M397.514 159.641L395.152 160.274" stroke="#F24048" stroke-width="2" stroke-linecap="round" stroke-linejoin="round"/>
<path d="M396.038 156.127L393.92 157.35" stroke="#F24048" stroke-width="2" stroke-linecap="round" stroke-linejoin="round"/>
<path d="M393.674 153.257L391.945 154.986" stroke="#F24048" stroke-width="2" stroke-linecap="round" stroke-linejoin="round"/>
<path d="M386.974 149.333L386.341 151.695" stroke="#F24048" stroke-width="2" stroke-linecap="round" stroke-linejoin="round"/>
<path d="M383 177.797V175.352" stroke="#F24048" stroke-width="2" stroke-linecap="round" stroke-linejoin="round"/>
<path d="M386.886 177.311L386.253 174.949" stroke="#F24048" stroke-width="2" stroke-linecap="round" stroke-linejoin="round"/>
<path d="M390.513 175.835L389.29 173.717" stroke="#F24048" stroke-width="2" stroke-linecap="round" stroke-linejoin="round"/>
<path d="M375.395 175.835L376.618 173.717" stroke="#F24048" stroke-width="2" stroke-linecap="round" stroke-linejoin="round"/>
<path d="M393.635 173.471L391.906 171.742" stroke="#F24048" stroke-width="2" stroke-linecap="round" stroke-linejoin="round"/>
<path d="M396.038 170.626L393.92 169.403" stroke="#F24048" stroke-width="2" stroke-linecap="round" stroke-linejoin="round"/>
<path d="M370.057 170.468L372.175 169.245" stroke="#F24048" stroke-width="2" stroke-linecap="round" stroke-linejoin="round"/>
<path d="M372.421 173.338L374.15 171.609" stroke="#F24048" stroke-width="2" stroke-linecap="round" stroke-linejoin="round"/>
<path d="M379.121 177.262L379.754 174.9" stroke="#F24048" stroke-width="2" stroke-linecap="round" stroke-linejoin="round"/>
</g>
<defs>
<clipPath id="clip0_235_202">
<rect width="420" height="200" fill="white"/>
</clipPath>
</defs>
</svg>
