<svg width="420" height="200" viewBox="0 0 420 200" fill="none" xmlns="http://www.w3.org/2000/svg">
<g clip-path="url(#clip0_235_404)">
<path d="M134 169.049H137.935C141.023 169.049 143.106 170.067 143.106 173.023C143.106 175.863 141.034 177.191 138.02 177.191H135.754V182.545H134.001L134 169.049ZM137.8 175.798C140.21 175.798 141.359 174.943 141.359 173.023C141.359 171.076 140.137 170.442 137.716 170.442H135.756V175.798H137.8Z" fill="#C12626"/>
<path d="M147.666 169.049H149.645L154.307 182.549H152.45L150.05 175.011C149.55 173.502 149.113 172.021 148.671 170.464H148.587C148.161 172.028 147.719 173.502 147.223 175.011L144.794 182.549H143.009L147.666 169.049ZM145.455 177.063H151.8V178.434H145.455V177.063Z" fill="#C12626"/>
<path d="M155.244 175.809C155.244 171.454 157.916 168.798 161.568 168.798C162.309 168.788 163.045 168.93 163.728 169.217C164.412 169.503 165.029 169.928 165.542 170.463L164.581 171.583C164.205 171.173 163.746 170.846 163.235 170.627C162.724 170.407 162.171 170.298 161.615 170.308C158.839 170.308 157.054 172.399 157.054 175.764C157.054 179.164 158.692 181.287 161.632 181.287C162.527 181.325 163.408 181.044 164.115 180.493V176.976H161.198V175.552H165.714V181.233C164.56 182.295 163.034 182.859 161.467 182.801C157.831 182.797 155.244 180.195 155.244 175.809Z" fill="#C12626"/>
<path d="M168.539 169.049H176.481V170.503H170.294V174.731H175.514V176.185H170.294V181.091H176.694V182.545H168.542L168.539 169.049Z" fill="#C12626"/>
<path d="M183.594 169.049H185.405L190.392 177.533L191.879 180.327H191.963C191.874 178.966 191.739 177.444 191.739 176.033V169.048H193.404V182.548H191.593L186.606 174.056L185.119 171.269H185.035C185.123 172.635 185.258 174.075 185.258 175.485V182.548H183.593L183.594 169.049Z" fill="#C12626"/>
<path d="M196.197 175.748C196.197 171.423 198.626 168.797 202.087 168.797C205.548 168.797 207.976 171.429 207.976 175.748C207.976 180.067 205.547 182.797 202.087 182.797C198.627 182.797 196.197 180.074 196.197 175.748ZM206.165 175.748C206.165 172.384 204.546 170.307 202.086 170.307C199.626 170.307 198.007 172.384 198.007 175.748C198.007 179.112 199.625 181.286 202.086 181.286C204.547 181.286 206.165 179.113 206.165 175.748Z" fill="#C12626"/>
<path d="M213.139 170.503H208.971V169.049H219.061V170.503H214.892V182.545H213.14L213.139 170.503Z" fill="#C12626"/>
<path d="M225.517 169.049H233.464V170.503H227.271V175.054H232.522V176.508H227.271V182.546H225.518L225.517 169.049Z" fill="#C12626"/>
<path d="M234.719 175.748C234.719 171.423 237.148 168.797 240.608 168.797C244.068 168.797 246.497 171.429 246.497 175.748C246.497 180.067 244.068 182.797 240.608 182.797C237.148 182.797 234.719 180.074 234.719 175.748ZM244.687 175.748C244.687 172.384 243.068 170.307 240.608 170.307C238.148 170.307 236.53 172.384 236.53 175.748C236.53 179.112 238.147 181.286 240.608 181.286C243.069 181.286 244.687 179.113 244.687 175.748Z" fill="#C12626"/>
<path d="M249.225 176.974V169.049H250.978V177.022C250.978 180.266 252.378 181.286 254.178 181.286C256.003 181.286 257.445 180.265 257.445 177.022V169.049H259.125V176.974C259.125 181.307 256.99 182.796 254.178 182.796C251.366 182.796 249.225 181.308 249.225 176.974Z" fill="#C12626"/>
<path d="M262.462 169.049H264.272L269.259 177.533L270.747 180.327H270.83C270.742 178.966 270.607 177.444 270.607 176.033V169.048H272.271V182.548H270.461L265.474 174.056L263.987 171.269H263.903C263.991 172.635 264.126 174.075 264.126 175.485V182.548H262.462V169.049Z" fill="#C12626"/>
<path d="M276.046 169.049H279.492C283.729 169.049 286 171.461 286 175.749C286 180.037 283.729 182.549 279.569 182.549H276.045L276.046 169.049ZM279.362 181.137C282.583 181.137 284.19 179.159 284.19 175.748C284.19 172.337 282.584 170.457 279.362 170.457H277.799V181.137H279.362Z" fill="#C12626"/>
<path d="M141.559 74.18C141.559 68.948 141.988 60.3399 142.302 55.1079H141.674C139.163 59.8549 136.338 64.208 133.513 69.153L110.128 103.174H167.422V113.403H96.6071V104.932L139.432 41.346H153.775V140.893H141.559V74.18Z" fill="black"/>
<path d="M209.785 142.001C199.747 142.015 189.926 139.077 181.545 133.552C173.165 128.026 166.594 120.158 162.652 110.926C158.69 101.598 157.617 91.2961 159.571 81.3517C161.525 71.4073 166.416 62.2774 173.613 55.142C179.545 49.235 186.833 44.8709 194.841 42.4309C202.849 39.9909 211.333 39.5493 219.55 41.1447C227.768 42.7401 235.47 46.3241 241.983 51.5832C248.496 56.8423 253.622 63.6165 256.913 71.314C260.875 80.6421 261.949 90.9442 259.995 100.889C258.041 110.833 253.149 119.963 245.952 127.099C236.346 136.663 223.336 142.022 209.781 141.999L209.785 142.001ZM209.785 47.011C201.071 47.0576 192.566 49.6842 185.343 54.5594C178.121 59.4345 172.504 66.3398 169.201 74.4039C165.899 82.468 165.059 91.3296 166.788 99.8705C168.516 108.411 172.736 116.249 178.914 122.394C185.092 128.54 192.952 132.717 201.503 134.4C210.053 136.083 218.91 135.196 226.956 131.85C235.002 128.504 241.877 122.851 246.714 115.602C251.55 108.353 254.131 99.8341 254.131 91.12C254.086 79.3942 249.392 68.165 241.079 59.8959C232.765 51.6267 221.511 46.9929 209.785 47.011Z" fill="black"/>
<path d="M200.855 74.8496L190.217 85.488L192.58 87.8511L203.219 77.2127L200.855 74.8496Z" fill="#C12626"/>
<path d="M192.58 74.8488L190.217 77.212L200.855 87.8504L203.219 85.4872L192.58 74.8488Z" fill="#C12626"/>
<path d="M228.939 74.8496L218.301 85.488L220.664 87.8511L231.303 77.2127L228.939 74.8496Z" fill="#C12626"/>
<path d="M220.664 74.8488L218.301 77.212L228.939 87.8504L231.303 85.4872L220.664 74.8488Z" fill="#C12626"/>
<path d="M192.192 88.42L189.007 85.241L193.141 81.1L189 76.966L192.179 73.7809L196.32 77.915L200.454 73.774L203.639 76.9529L199.505 81.0941L203.646 85.228L200.467 88.413L196.326 84.279L192.192 88.42ZM196.325 82.6411L200.466 86.775L202.009 85.23L197.868 81.096L202.002 76.955L200.456 75.412L196.322 79.553L192.181 75.419L190.638 76.965L194.78 81.0991L190.646 85.2401L192.192 86.783L196.325 82.6411Z" fill="#C12626"/>
<path d="M228.5 88.3849L224.358 84.2509L220.224 88.392L217.039 85.213L221.173 81.072L217.032 76.9379L220.211 73.753L224.352 77.887L228.486 73.746L231.671 76.925L227.537 81.066L231.678 85.2L228.5 88.3849ZM224.357 82.613L228.498 86.747L230.041 85.201L225.9 81.067L230.034 76.926L228.489 75.383L224.355 79.524L220.214 75.39L218.671 76.936L222.813 81.07L218.679 85.211L220.225 86.754L224.357 82.613Z" fill="#C12626"/>
<path d="M297.099 74.18C297.099 68.948 297.528 60.3399 297.842 55.1079H297.214C294.703 59.8549 291.879 64.208 289.054 69.153L265.669 103.174H322.962V113.403H252.147V104.932L294.972 41.346H309.315V140.893H297.099V74.18Z" fill="black"/>
<path d="M210.029 142.919C200.42 142.933 190.997 140.269 182.818 135.224C174.64 130.18 168.029 122.955 163.729 114.362L154.446 114.37L154.47 141.87L141.119 141.881L141.095 114.381L96.2211 114.42L96.2131 105.197L96.3131 105.051L139.18 41.161L154.38 41.148L154.433 102.987H159.639C158.777 99.2211 158.341 95.3703 158.339 91.507C158.332 77.8816 163.709 64.8053 173.3 55.1272C182.891 45.4491 195.918 39.9535 209.543 39.8377C223.168 39.7219 236.287 44.9952 246.041 54.5089C255.795 64.0225 261.394 77.0054 261.618 90.629L294.725 41.287L294.897 41.031L310.097 41.018L310.15 102.857L323.774 102.845L323.784 114.228L310.16 114.24L310.184 141.74L296.833 141.751L296.809 114.251L256.276 114.286C251.995 122.891 245.398 130.13 237.226 135.189C229.054 140.248 219.633 142.926 210.022 142.922L210.029 142.919ZM153.286 113.219L164.446 113.209L164.605 113.533C168.778 122.018 175.246 129.164 183.275 134.158C191.305 139.153 200.573 141.796 210.029 141.788C219.485 141.78 228.75 139.121 236.77 134.113C244.791 129.104 251.247 121.948 255.405 113.455L255.563 113.131L297.974 113.095L297.998 140.595L309.037 140.586L309.013 113.086L322.637 113.074L322.629 103.995L309.005 104.007L308.952 42.168L295.521 42.18L260.421 94.49L260.462 92.52C260.47 92.12 260.474 91.764 260.474 91.42C260.466 84.2846 258.945 77.232 256.012 70.7272C253.079 64.2224 248.801 58.4132 243.459 53.6825C238.117 48.9519 231.834 45.4072 225.022 43.2823C218.21 41.1574 211.026 40.5006 203.942 41.355C196.857 42.2095 190.035 44.5558 183.924 48.2394C177.813 51.9229 172.552 56.86 168.488 62.7251C164.424 68.5903 161.65 75.2502 160.348 82.2658C159.046 89.2814 159.246 96.4933 160.934 103.426L161.108 104.138L153.28 104.145L153.227 42.306L139.796 42.317L97.3671 105.55L97.3741 113.271L142.248 113.233L142.272 140.733L153.31 140.724L153.286 113.219ZM210.023 136.147C200.357 136.157 190.945 133.046 183.189 127.277C175.432 121.509 169.745 113.39 166.974 104.129L166.854 103.711C164.247 94.6708 164.548 85.0398 167.714 76.18C170.881 67.3201 176.752 59.6798 184.498 54.3394C192.244 48.999 201.473 46.2287 210.879 46.4203C220.286 46.612 229.394 49.7559 236.917 55.4074C244.439 61.0589 249.994 68.932 252.797 77.9135C255.599 86.8949 255.508 96.5302 252.535 105.457C249.562 114.383 243.858 122.149 236.229 127.657C228.601 133.164 219.435 136.134 210.026 136.147H210.023ZM168.057 103.716C171.159 114.279 178.147 123.275 187.616 128.891C197.084 134.508 208.329 136.328 219.086 133.985C229.843 131.643 239.312 125.311 245.588 116.266C251.863 107.221 254.478 96.1337 252.906 85.2375C251.334 74.3414 245.692 64.4456 237.116 57.5431C228.539 50.6405 217.666 47.244 206.686 48.0374C195.706 48.8308 185.434 53.7553 177.939 61.8191C170.444 69.883 166.283 80.4871 166.294 91.496C166.295 95.3745 166.817 99.2353 167.845 102.975H168.056L168.057 103.716ZM297.963 104.016L264.914 104.044L288.833 69.115C289.933 67.178 291.046 65.315 292.119 63.521C293.819 60.668 295.432 57.973 296.946 55.098L297.108 54.79H298.698L298.662 55.4C298.309 61.382 297.933 69.525 297.937 74.442L297.963 104.016ZM267.104 102.89L296.804 102.865L296.78 74.442C296.78 69.851 297.101 62.474 297.431 56.642C296.062 59.17 294.624 61.579 293.111 64.112C292.037 65.912 290.926 67.772 289.825 69.706L289.8 69.746L267.104 102.89ZM142.24 104.15L109.191 104.178L133.11 69.25C134.21 67.313 135.323 65.45 136.397 63.65C138.097 60.797 139.709 58.103 141.224 55.228L141.386 54.92H142.975L142.939 55.53C142.586 61.512 142.21 69.655 142.215 74.572L142.24 104.15ZM111.381 103.024L141.081 102.999L141.056 74.576C141.056 69.985 141.377 62.608 141.707 56.776C140.338 59.304 138.9 61.712 137.388 64.245C136.313 66.045 135.202 67.906 134.101 69.845L134.076 69.886L111.381 103.024Z" fill="black"/>
<path d="M196.5 111.002C196.5 111.002 198.268 107.002 210.007 107.002C221.746 107.002 224.5 111.002 224.5 111.002" stroke="#C12626" stroke-width="4" stroke-linecap="round"/>
<path d="M57.38 7.99197V12.393" stroke="#F24048" stroke-width="3" stroke-linecap="round" stroke-linejoin="round"/>
<path d="M50.386 8.86899L51.525 13.12" stroke="#F24048" stroke-width="3" stroke-linecap="round" stroke-linejoin="round"/>
<path d="M43.8569 11.525L46.0579 15.337" stroke="#F24048" stroke-width="3" stroke-linecap="round" stroke-linejoin="round"/>
<path d="M71.0699 11.525L68.8689 15.337" stroke="#F24048" stroke-width="3" stroke-linecap="round" stroke-linejoin="round"/>
<path d="M38.2379 15.781L41.3499 18.893" stroke="#F24048" stroke-width="3" stroke-linecap="round" stroke-linejoin="round"/>
<path d="M33.912 21.346L37.724 23.547" stroke="#F24048" stroke-width="3" stroke-linecap="round" stroke-linejoin="round"/>
<path d="M31.174 27.841L35.425 28.98" stroke="#F24048" stroke-width="3" stroke-linecap="round" stroke-linejoin="round"/>
<path d="M30.21 34.824H34.611" stroke="#F24048" stroke-width="3" stroke-linecap="round" stroke-linejoin="round"/>
<path d="M31.0859 41.818L35.3369 40.679" stroke="#F24048" stroke-width="3" stroke-linecap="round" stroke-linejoin="round"/>
<path d="M83.247 42.145L78.996 41.006" stroke="#F24048" stroke-width="3" stroke-linecap="round" stroke-linejoin="round"/>
<path d="M84.2109 35.162H79.8099" stroke="#F24048" stroke-width="3" stroke-linecap="round" stroke-linejoin="round"/>
<path d="M83.335 28.168L79.084 29.307" stroke="#F24048" stroke-width="3" stroke-linecap="round" stroke-linejoin="round"/>
<path d="M80.6789 21.639L76.8669 23.84" stroke="#F24048" stroke-width="3" stroke-linecap="round" stroke-linejoin="round"/>
<path d="M76.4219 16.02L73.3099 19.132" stroke="#F24048" stroke-width="3" stroke-linecap="round" stroke-linejoin="round"/>
<path d="M64.3619 8.95596L63.2229 13.207" stroke="#F24048" stroke-width="3" stroke-linecap="round" stroke-linejoin="round"/>
<path d="M57.2109 61.91V57.509" stroke="#F24048" stroke-width="3" stroke-linecap="round" stroke-linejoin="round"/>
<path d="M64.2049 61.033L63.0659 56.782" stroke="#F24048" stroke-width="3" stroke-linecap="round" stroke-linejoin="round"/>
<path d="M70.734 58.377L68.533 54.565" stroke="#F24048" stroke-width="3" stroke-linecap="round" stroke-linejoin="round"/>
<path d="M43.52 58.377L45.721 54.565" stroke="#F24048" stroke-width="3" stroke-linecap="round" stroke-linejoin="round"/>
<path d="M76.352 54.121L73.24 51.009" stroke="#F24048" stroke-width="3" stroke-linecap="round" stroke-linejoin="round"/>
<path d="M80.6789 48.557L76.8669 46.356" stroke="#F24048" stroke-width="3" stroke-linecap="round" stroke-linejoin="round"/>
<path d="M33.912 48.263L37.724 46.062" stroke="#F24048" stroke-width="3" stroke-linecap="round" stroke-linejoin="round"/>
<path d="M38.168 53.882L41.28 50.77" stroke="#F24048" stroke-width="3" stroke-linecap="round" stroke-linejoin="round"/>
<path d="M50.228 60.946L51.367 56.695" stroke="#F24048" stroke-width="3" stroke-linecap="round" stroke-linejoin="round"/>
<path d="M363.094 138.797V141.242" stroke="#F24048" stroke-width="2" stroke-linecap="round" stroke-linejoin="round"/>
<path d="M359.209 139.284L359.842 141.646" stroke="#F24048" stroke-width="2" stroke-linecap="round" stroke-linejoin="round"/>
<path d="M355.582 140.76L356.805 142.878" stroke="#F24048" stroke-width="2" stroke-linecap="round" stroke-linejoin="round"/>
<path d="M370.7 140.76L369.477 142.878" stroke="#F24048" stroke-width="2" stroke-linecap="round" stroke-linejoin="round"/>
<path d="M352.46 143.124L354.189 144.853" stroke="#F24048" stroke-width="2" stroke-linecap="round" stroke-linejoin="round"/>
<path d="M350.057 145.97L352.175 147.193" stroke="#F24048" stroke-width="2" stroke-linecap="round" stroke-linejoin="round"/>
<path d="M348.536 149.466L350.898 150.099" stroke="#F24048" stroke-width="2" stroke-linecap="round" stroke-linejoin="round"/>
<path d="M348 153.229H350.445" stroke="#F24048" stroke-width="2" stroke-linecap="round" stroke-linejoin="round"/>
<path d="M348.487 156.999L350.849 156.366" stroke="#F24048" stroke-width="2" stroke-linecap="round" stroke-linejoin="round"/>
<path d="M377.465 157.174L375.103 156.541" stroke="#F24048" stroke-width="2" stroke-linecap="round" stroke-linejoin="round"/>
<path d="M378 153.411H375.555" stroke="#F24048" stroke-width="2" stroke-linecap="round" stroke-linejoin="round"/>
<path d="M377.514 149.641L375.152 150.274" stroke="#F24048" stroke-width="2" stroke-linecap="round" stroke-linejoin="round"/>
<path d="M376.038 146.127L373.92 147.35" stroke="#F24048" stroke-width="2" stroke-linecap="round" stroke-linejoin="round"/>
<path d="M373.674 143.257L371.945 144.986" stroke="#F24048" stroke-width="2" stroke-linecap="round" stroke-linejoin="round"/>
<path d="M366.974 139.333L366.341 141.695" stroke="#F24048" stroke-width="2" stroke-linecap="round" stroke-linejoin="round"/>
<path d="M363 167.797V165.352" stroke="#F24048" stroke-width="2" stroke-linecap="round" stroke-linejoin="round"/>
<path d="M366.886 167.311L366.253 164.949" stroke="#F24048" stroke-width="2" stroke-linecap="round" stroke-linejoin="round"/>
<path d="M370.513 165.835L369.29 163.717" stroke="#F24048" stroke-width="2" stroke-linecap="round" stroke-linejoin="round"/>
<path d="M355.395 165.835L356.618 163.717" stroke="#F24048" stroke-width="2" stroke-linecap="round" stroke-linejoin="round"/>
<path d="M373.635 163.471L371.906 161.742" stroke="#F24048" stroke-width="2" stroke-linecap="round" stroke-linejoin="round"/>
<path d="M376.038 160.626L373.92 159.403" stroke="#F24048" stroke-width="2" stroke-linecap="round" stroke-linejoin="round"/>
<path d="M350.057 160.468L352.175 159.245" stroke="#F24048" stroke-width="2" stroke-linecap="round" stroke-linejoin="round"/>
<path d="M352.421 163.338L354.15 161.609" stroke="#F24048" stroke-width="2" stroke-linecap="round" stroke-linejoin="round"/>
<path d="M359.121 167.262L359.754 164.9" stroke="#F24048" stroke-width="2" stroke-linecap="round" stroke-linejoin="round"/>
</g>
<defs>
<clipPath id="clip0_235_404">
<rect width="420" height="200" fill="white"/>
</clipPath>
</defs>
</svg>
