<svg xmlns="http://www.w3.org/2000/svg" width="13" height="17" viewBox="0 0 13 17">
  <g id="그룹_8855" data-name="그룹 8855" transform="translate(0 1)">
    <path id="패스_12531" data-name="패스 12531" d="M476.856,124.131h-2.636a.748.748,0,0,0-.684-.456h-1.473a1.291,1.291,0,1,0-2.581,0h-1.331a.748.748,0,0,0-.684.456H464.83a.492.492,0,0,0-.487.5v14.236a.492.492,0,0,0,.487.5h12.025a.492.492,0,0,0,.487-.5V124.628A.492.492,0,0,0,476.856,124.131Zm-.487,14.236h-11.05V125.125H467.4v.5h6.882v-.5h2.084Z" transform="translate(-464.343 -123.361)" fill="#fff"/>
    <path id="패스_12532" data-name="패스 12532" d="M474.04,142.849a.529.529,0,0,0,0,1.049h6.567a.529.529,0,0,0,0-1.049Z" transform="translate(-470.81 -137.054)" fill="#fff"/>
    <path id="패스_12533" data-name="패스 12533" d="M480.607,152.1H474.04a.529.529,0,0,0,0,1.049h6.567a.529.529,0,0,0,0-1.049Z" transform="translate(-470.81 -143.686)" fill="#fff"/>
    <path id="패스_12534" data-name="패스 12534" d="M480.607,161.344H474.04a.529.529,0,0,0,0,1.049h6.567a.529.529,0,0,0,0-1.049Z" transform="translate(-470.81 -150.318)" fill="#fff"/>
  </g>
</svg>
